<svg xmlns="http://www.w3.org/2000/svg" width="900" height="320" viewBox="0 0 900 320" role="img"><title>订单路径：理解需求、形成方案、完成交付、收到回款；反馈进入下一轮</title><rect x="0" y="0" width="900" height="320" fill="#f7f8f3" stroke="none" stroke-width="1"/><g fill="#1545ba" transform="translate(25 40) scale(0.025 -0.025)"><path d="M44 431H960V349H44Z" transform="translate(0 0)"/><path d="M291 341H366Q366 341 365.5 329.0Q365 317 364 310Q358 193 351.0 121.0Q344 49 335.0 11.5Q326 -26 311 -42Q298 -57 282.0 -63.0Q266 -69 243 -71Q224 -73 189.5 -72.5Q155 -72 116 -70Q115 -55 109.0 -36.0Q103 -17 94 -3Q132 -6 165.0 -7.0Q198 -8 212 -8Q225 -8 233.5 -6.0Q242 -4 248 3Q258 13 265.5 47.5Q273 82 279.5 150.0Q286 218 291 329ZM117 577H187Q184 528 179.0 471.5Q174 415 169.0 363.5Q164 312 158 273H88Q94 313 100.0 365.5Q106 418 110.5 473.5Q115 529 117 577ZM136 341H310V273H127ZM143 577H288V732H93V802H360V506H143ZM376 452H958V380H376ZM846 795 919 774Q888 718 845.5 664.0Q803 610 754.5 564.0Q706 518 656 483Q651 490 640.0 499.0Q629 508 618.0 518.0Q607 528 598 533Q673 580 738.5 649.0Q804 718 846 795ZM723 410Q743 320 777.5 239.5Q812 159 861.0 95.5Q910 32 972 -5Q959 -16 944.0 -33.5Q929 -51 920 -66Q854 -21 803.0 48.5Q752 118 715.5 206.5Q679 295 656 395ZM474 -85 467 -18 495 12 713 95Q714 84 714.0 71.0Q714 58 715.0 46.0Q716 34 717 25Q643 -7 597.0 -26.0Q551 -45 526.5 -56.0Q502 -67 491.0 -73.5Q480 -80 474 -85ZM474 -85Q472 -76 466.5 -64.0Q461 -52 454.5 -40.0Q448 -28 442 -21Q456 -14 472.0 1.5Q488 17 488 47V820H562V-15Q562 -15 553.0 -19.5Q544 -24 531.0 -32.0Q518 -40 505.0 -49.0Q492 -58 483.0 -67.5Q474 -77 474 -85Z" transform="translate(1000 0)"/><path d="M114 772 165 820Q192 795 221.5 766.0Q251 737 277.0 709.0Q303 681 319 658L266 605Q251 627 225.0 656.5Q199 686 170.0 716.5Q141 747 114 772ZM50 526H274V454H50ZM396 756H960V681H396ZM703 730H782V30Q782 -8 771.5 -28.5Q761 -49 733 -60Q706 -69 658.5 -72.0Q611 -75 540 -75Q538 -63 532.5 -48.5Q527 -34 521.0 -19.0Q515 -4 508 7Q546 5 580.5 5.0Q615 5 640.5 5.0Q666 5 677 5Q691 6 697.0 11.5Q703 17 703 31ZM205 -55 192 18 215 51 439 199Q441 188 444.5 175.5Q448 163 452.5 151.5Q457 140 461 132Q382 77 334.0 43.5Q286 10 260.0 -8.5Q234 -27 222.5 -37.5Q211 -48 205 -55ZM205 -55Q202 -46 195.5 -34.0Q189 -22 181.5 -10.5Q174 1 167 9Q181 18 200.5 40.5Q220 63 220 96V526H293V31Q293 31 284.0 25.0Q275 19 262.0 9.0Q249 -1 236.0 -12.5Q223 -24 214.0 -35.0Q205 -46 205 -55Z" transform="translate(2000 0)"/><path d="M459 632H536V-79H459ZM221 437V329H785V437ZM221 603V497H785V603ZM148 667H861V265H148ZM54 170H949V100H54ZM235 806 299 836Q330 802 361.0 760.5Q392 719 407 687L340 654Q325 684 295.5 727.5Q266 771 235 806ZM709 836 790 809Q760 761 725.5 711.5Q691 662 662 628L598 653Q617 677 638.0 709.0Q659 741 678.0 774.5Q697 808 709 836Z" transform="translate(3000 0)"/><path d="M131 679H435V25H131V93H366V612H131ZM87 679H156V-54H87ZM126 401H402V335H126ZM240 842 321 828Q306 781 288.5 733.0Q271 685 256 651L195 666Q204 691 212.5 722.0Q221 753 228.5 785.0Q236 817 240 842ZM578 682H885V613H578ZM858 682H929Q929 682 929.0 675.0Q929 668 929.0 658.5Q929 649 928 644Q922 472 916.5 353.0Q911 234 903.0 158.5Q895 83 884.5 41.0Q874 -1 859 -19Q842 -41 823.5 -49.5Q805 -58 778 -61Q753 -63 712.5 -62.5Q672 -62 629 -59Q628 -43 621.5 -22.0Q615 -1 604 13Q654 9 694.5 8.0Q735 7 753 7Q768 7 777.5 10.5Q787 14 796 24Q808 37 817.5 77.5Q827 118 834.0 193.0Q841 268 847.0 384.5Q853 501 858 666ZM598 844 670 828Q652 753 626.5 681.5Q601 610 570.5 547.0Q540 484 506 436Q499 442 487.5 450.5Q476 459 464.0 466.5Q452 474 443 479Q478 524 507.0 582.5Q536 641 559.0 708.0Q582 775 598 844ZM552 423 611 456Q639 421 669.5 379.0Q700 337 726.5 298.0Q753 259 769 229L705 189Q690 220 664.5 260.5Q639 301 609.5 343.5Q580 386 552 423Z" transform="translate(4000 0)"/><path d="M530 25H860V-41H530ZM579 738H843V672H579ZM501 283H894V-75H823V218H571V-78H501ZM816 738H830L844 741L891 720Q863 628 816.0 551.5Q769 475 709.0 413.5Q649 352 580.5 306.0Q512 260 441 229Q434 242 421.5 259.5Q409 277 397 287Q464 312 528.0 354.0Q592 396 649.0 452.5Q706 509 749.0 577.5Q792 646 816 725ZM597 841 668 823Q646 756 614.5 692.0Q583 628 545.5 573.5Q508 519 467 477Q461 484 450.0 493.0Q439 502 427.5 511.5Q416 521 408 526Q470 581 519.0 664.5Q568 748 597 841ZM577 696Q598 642 634.5 585.5Q671 529 720.5 475.5Q770 422 833.5 377.5Q897 333 973 304Q966 297 957.0 286.0Q948 275 940.0 263.0Q932 251 926 241Q849 275 785.5 323.0Q722 371 673.0 427.5Q624 484 587.5 542.5Q551 601 528 655ZM89 396H153V34H89ZM156 732V556H345V732ZM89 798H414V490H89ZM231 523H299V66H231ZM38 42Q87 51 151.0 65.5Q215 80 287.0 97.0Q359 114 431 131L438 64Q335 38 233.0 13.0Q131 -12 51 -31ZM255 346H424V279H255Z" transform="translate(5000 0)"/><path d="M384 787H826V718H384ZM805 787H819L833 790L887 759Q848 688 789.0 627.0Q730 566 658.5 516.0Q587 466 510.0 426.5Q433 387 357 360Q353 369 345.0 380.5Q337 392 328.5 403.0Q320 414 312 421Q383 444 456.5 480.0Q530 516 597.0 562.0Q664 608 718.0 661.0Q772 714 805 773ZM322 18H956V-52H322ZM604 287H680V-9H604ZM384 332H897V262H384ZM274 617 341 591Q308 532 264.5 473.5Q221 415 172.5 363.5Q124 312 76 273Q73 281 66.0 294.5Q59 308 50.5 322.0Q42 336 36 345Q80 378 124.5 422.0Q169 466 207.5 515.5Q246 565 274 617ZM257 838 328 810Q300 766 260.5 722.5Q221 679 177.0 639.5Q133 600 89 570Q85 580 78.0 591.0Q71 602 63.5 613.5Q56 625 49 632Q89 658 128.5 692.5Q168 727 202.0 764.5Q236 802 257 838ZM181 428 254 501 257 499V-80H181ZM620 519 659 573Q709 554 765.0 528.0Q821 502 872.5 476.0Q924 450 957 428L915 366Q883 389 832.5 416.0Q782 443 726.0 470.5Q670 498 620 519Z" transform="translate(6000 0)"/></g><g fill="#5d6678" transform="translate(25 73) scale(0.014 -0.014)"><path d="M623 785H936V719H623ZM369 603H553V547H369ZM474 286 525 308Q543 276 560.0 239.0Q577 202 591.0 167.5Q605 133 613 107L558 81Q551 107 537.0 142.5Q523 178 506.5 216.0Q490 254 474 286ZM367 782H580V362H367V424H522V719H367ZM778 766H839V736Q839 672 835.0 594.5Q831 517 817.5 431.0Q804 345 775.5 256.5Q747 168 698.5 82.0Q650 -4 576 -83Q566 -74 550.0 -63.0Q534 -52 520 -46Q593 29 641.0 111.5Q689 194 716.5 278.5Q744 363 757.5 444.5Q771 526 774.5 600.0Q778 674 778 735ZM766 320H825V14Q825 9 826.5 4.5Q828 0 831 -2Q837 -7 849 -7Q854 -7 861.5 -7.0Q869 -7 875 -7Q882 -7 888.0 -6.0Q894 -5 898 -2Q901 1 904.0 7.0Q907 13 908 22Q910 35 910.5 65.0Q911 95 911 133Q919 126 932.0 119.0Q945 112 956 108Q955 71 953.0 34.0Q951 -3 947 -17Q940 -46 922 -58Q915 -63 902.5 -66.0Q890 -69 877 -69Q869 -69 855.0 -69.0Q841 -69 834 -69Q821 -69 807.0 -65.5Q793 -62 783 -53Q773 -44 769.5 -29.5Q766 -15 766 18ZM337 7 328 70 350 101 543 210Q546 197 551.5 182.0Q557 167 561 158Q491 115 449.0 88.5Q407 62 384.5 46.5Q362 31 352.0 22.5Q342 14 337 7ZM623 359V417L663 436H951V372H696Q670 372 650.0 368.5Q630 365 623 359ZM623 360Q622 367 617.0 378.5Q612 390 607.0 400.5Q602 411 598 418Q608 421 613.5 426.0Q619 431 623 444Q626 453 631.5 480.5Q637 508 642.5 542.5Q648 577 653.0 609.0Q658 641 660 658H721Q717 637 711.5 603.0Q706 569 699.5 531.5Q693 494 687.0 460.0Q681 426 676 404Q676 404 668.0 399.5Q660 395 650.0 388.0Q640 381 631.5 373.5Q623 366 623 360ZM337 7Q334 15 327.0 24.5Q320 34 312.5 43.5Q305 53 298 59Q310 69 324.5 92.5Q339 116 339 150V782H400V91Q400 91 390.5 81.5Q381 72 368.5 58.5Q356 45 346.5 31.0Q337 17 337 7ZM53 628H312V558H53ZM158 840H226V-79H158ZM160 585 209 570Q200 512 185.5 447.5Q171 383 153.0 319.5Q135 256 113.5 201.5Q92 147 69 108Q62 123 50.5 141.5Q39 160 30 172Q51 207 71.0 255.5Q91 304 108.5 360.0Q126 416 139.0 474.0Q152 532 160 585ZM222 526Q229 516 243.5 492.0Q258 468 274.5 439.5Q291 411 305.0 387.5Q319 364 325 353L282 292Q275 310 262.5 337.5Q250 365 235.5 394.5Q221 424 209.0 449.5Q197 475 188 490Z" transform="translate(0 0)"/><path d="M174 489H742V424H174ZM723 489H739L751 493L801 461Q779 423 746.0 382.0Q713 341 677.5 304.5Q642 268 608 239Q598 249 581.5 259.5Q565 270 552 277Q584 303 617.0 338.0Q650 373 678.0 409.5Q706 446 723 476ZM518 824Q555 785 607.0 747.0Q659 709 718.5 675.0Q778 641 841.0 613.5Q904 586 963 567Q954 560 944.0 548.5Q934 537 925.5 525.0Q917 513 911 503Q853 524 790.5 555.0Q728 586 667.0 624.0Q606 662 552.0 704.5Q498 747 457 792ZM407 617 451 660Q490 640 530.5 612.0Q571 584 593 560L546 512Q524 537 485.0 566.5Q446 596 407 617ZM269 253H344V49Q344 26 357.5 19.5Q371 13 418 13Q427 13 448.5 13.0Q470 13 497.5 13.0Q525 13 553.0 13.0Q581 13 604.5 13.0Q628 13 640 13Q666 13 679.0 21.0Q692 29 697.5 54.5Q703 80 705 130Q714 124 726.0 118.5Q738 113 751.5 109.0Q765 105 774 102Q769 39 757.0 5.0Q745 -29 719.0 -42.0Q693 -55 645 -55Q638 -55 614.5 -55.0Q591 -55 560.0 -55.0Q529 -55 498.0 -55.0Q467 -55 444.0 -55.0Q421 -55 414 -55Q357 -55 325.5 -46.5Q294 -38 281.5 -15.0Q269 8 269 48ZM362 308 418 347Q452 320 486.0 287.5Q520 255 549.0 222.0Q578 189 595 161L535 118Q519 145 491.0 178.5Q463 212 429.5 246.0Q396 280 362 308ZM747 235 810 261Q839 223 868.0 178.0Q897 133 920.5 90.0Q944 47 957 13L888 -18Q877 16 854.0 60.5Q831 105 803.0 150.5Q775 196 747 235ZM142 246 208 224Q197 183 182.5 136.5Q168 90 149.5 45.5Q131 1 108 -33L41 0Q64 33 83.0 75.0Q102 117 117.0 161.5Q132 206 142 246ZM478 857 548 830Q493 756 418.0 693.0Q343 630 256.0 580.0Q169 530 79 494Q75 502 67.0 514.5Q59 527 50.0 539.5Q41 552 34 559Q123 590 206.0 634.5Q289 679 359.5 735.0Q430 791 478 857Z" transform="translate(1000 0)"/><path d="M461 484H542V18Q542 -18 531.5 -37.0Q521 -56 494 -66Q467 -75 422.5 -77.0Q378 -79 311 -79Q309 -62 301.0 -39.5Q293 -17 284 0Q318 -1 349.5 -2.0Q381 -3 404.5 -2.5Q428 -2 437 -2Q451 -1 456.0 3.0Q461 7 461 19ZM234 351 311 330Q287 269 253.5 210.0Q220 151 181.5 100.0Q143 49 104 11Q97 18 84.0 26.5Q71 35 57.5 43.5Q44 52 35 56Q96 109 148.5 187.5Q201 266 234 351ZM684 320 753 349Q790 303 825.5 248.0Q861 193 890.0 140.0Q919 87 934 44L859 10Q846 52 818.0 106.0Q790 160 755.0 216.5Q720 273 684 320ZM149 766H853V692H149ZM60 523H941V449H60Z" transform="translate(2000 0)"/><path d="M298 149H371V20Q371 2 382.0 -3.0Q393 -8 432 -8Q441 -8 464.5 -8.0Q488 -8 517.0 -8.0Q546 -8 571.5 -8.0Q597 -8 609 -8Q630 -8 640.5 -1.5Q651 5 655.5 26.5Q660 48 662 93Q675 85 694.0 78.0Q713 71 728 68Q724 11 713.0 -18.5Q702 -48 679.0 -59.5Q656 -71 615 -71Q609 -71 589.5 -71.0Q570 -71 545.5 -71.0Q521 -71 496.0 -71.0Q471 -71 451.5 -71.0Q432 -71 426 -71Q375 -71 347.0 -63.5Q319 -56 308.5 -36.0Q298 -16 298 20ZM408 168 452 210Q480 196 510.0 177.0Q540 158 567.0 138.5Q594 119 611 103L564 56Q548 73 521.5 93.0Q495 113 465.5 133.0Q436 153 408 168ZM741 140 800 167Q826 141 852.0 110.5Q878 80 899.5 49.5Q921 19 932 -6L869 -37Q858 -12 837.5 18.5Q817 49 792.0 81.0Q767 113 741 140ZM181 157 244 129Q222 84 192.0 33.0Q162 -18 123 -54L61 -17Q99 16 130.5 64.5Q162 113 181 157ZM118 766H881V705H118ZM73 605H933V544H73ZM269 691 337 707Q352 683 364.5 654.0Q377 625 382 604L310 586Q306 608 294.5 637.5Q283 667 269 691ZM663 709 739 692Q722 659 705.5 628.5Q689 598 673 574L608 592Q622 617 637.5 650.5Q653 684 663 709ZM261 323V253H742V323ZM261 441V373H742V441ZM190 493H817V201H190ZM443 832 515 849Q531 825 547.0 794.5Q563 764 570 742L494 723Q487 745 472.5 776.0Q458 807 443 832Z" transform="translate(3000 0)"/><path d="" transform="translate(4000 0)"/><path d="M500 486Q530 486 554.0 472.0Q578 458 592.0 434.0Q606 410 606 380Q606 351 592.0 326.5Q578 302 554.0 288.0Q530 274 500 274Q471 274 446.5 288.0Q422 302 408.0 326.5Q394 351 394 380Q394 410 408.0 434.0Q422 458 446.5 472.0Q471 486 500 486Z" transform="translate(4224 0)"/><path d="" transform="translate(5224 0)"/><path d="M260 458 312 507Q351 462 389.5 409.5Q428 357 460.0 307.0Q492 257 511 216L454 163Q435 204 403.5 255.5Q372 307 334.5 360.0Q297 413 260 458ZM690 507Q702 443 723.5 371.5Q745 300 777.0 230.5Q809 161 854.0 101.0Q899 41 959 0Q951 -7 940.0 -19.0Q929 -31 919.5 -44.0Q910 -57 903 -68Q843 -20 797.5 44.5Q752 109 719.0 182.5Q686 256 664.0 329.5Q642 403 629 468ZM261 818 343 814Q333 618 311.0 452.5Q289 287 242.5 154.0Q196 21 113 -78Q107 -71 93.5 -61.0Q80 -51 65.5 -41.5Q51 -32 41 -26Q123 61 168.0 187.5Q213 314 233.5 473.5Q254 633 261 818ZM646 819 727 815Q718 662 700.0 530.0Q682 398 650.5 287.0Q619 176 569.0 85.5Q519 -5 443 -75Q437 -68 423.5 -58.5Q410 -49 395.5 -38.5Q381 -28 371 -23Q471 61 527.0 184.5Q583 308 609.0 467.5Q635 627 646 819Z" transform="translate(5448 0)"/><path d="M469 606H545V25Q545 -10 535.5 -28.0Q526 -46 500 -55Q475 -64 432.5 -66.5Q390 -69 326 -69Q323 -53 315.0 -31.5Q307 -10 298 5Q349 3 390.5 2.5Q432 2 446 3Q459 4 464.0 8.5Q469 13 469 25ZM201 798H752V729H201ZM730 798H749L766 801L818 764Q780 725 729.5 686.5Q679 648 623.5 615.0Q568 582 513 557Q506 568 492.5 582.5Q479 597 469 606Q518 626 568.0 656.0Q618 686 661.0 719.5Q704 753 730 783ZM352 514H659V450H352ZM69 582H286V513H69ZM334 360H676V295H334ZM288 202H721V136H288ZM887 590 947 542Q921 510 890.5 476.5Q860 443 829.0 412.5Q798 382 771 358L724 399Q750 423 780.0 456.0Q810 489 838.5 524.5Q867 560 887 590ZM735 613Q752 500 782.0 397.5Q812 295 857.5 214.5Q903 134 967 85Q958 78 947.5 67.0Q937 56 927.5 44.0Q918 32 911 22Q845 80 797.5 168.0Q750 256 719.0 367.0Q688 478 669 602ZM266 582H281L295 585L341 568Q322 440 286.0 333.5Q250 227 201.5 145.0Q153 63 95 10Q89 19 78.5 29.5Q68 40 57.0 49.5Q46 59 37 65Q93 114 139.0 188.5Q185 263 217.5 358.5Q250 454 266 565Z" transform="translate(6448 0)"/><path d="M340 733H954V666H340ZM330 470H959V402H330ZM499 29H848V-38H499ZM486 840H559V574H486ZM734 840H807V574H734ZM457 276H899V-76H826V208H527V-80H457ZM567 586 640 573Q603 427 534.0 312.5Q465 198 367 124Q362 132 352.5 142.5Q343 153 332.5 163.0Q322 173 314 180Q409 245 472.5 349.5Q536 454 567 586ZM96 769 146 814Q174 793 204.0 766.5Q234 740 260.5 714.0Q287 688 303 667L251 615Q235 636 209.0 663.0Q183 690 153.5 717.5Q124 745 96 769ZM170 -52 158 17 180 48 339 150Q342 135 348.5 115.5Q355 96 361 84Q305 46 269.0 22.0Q233 -2 213.5 -16.0Q194 -30 184.5 -37.5Q175 -45 170 -52ZM44 526H220V454H44ZM170 -52Q165 -44 156.5 -34.0Q148 -24 139.0 -15.0Q130 -6 122 -1Q133 7 146.0 22.5Q159 38 169.0 59.5Q179 81 179 107V526H251V56Q251 56 243.0 48.0Q235 40 223.0 27.0Q211 14 198.5 -1.0Q186 -16 178.0 -29.5Q170 -43 170 -52Z" transform="translate(7448 0)"/><path d="M97 318H565V251H97ZM294 425H365V38H294ZM62 42Q125 52 209.0 66.5Q293 81 387.0 98.5Q481 116 575 133L579 67Q490 50 400.0 32.0Q310 14 227.5 -1.5Q145 -17 79 -30ZM71 774H585V708H71ZM379 643 434 675Q462 641 491.5 602.0Q521 563 546.0 526.0Q571 489 585 460L528 422Q514 451 489.5 489.5Q465 528 436.0 568.5Q407 609 379 643ZM641 754H711V148H641ZM839 824H912V37Q912 2 903.0 -16.5Q894 -35 871 -44Q848 -53 808.5 -56.0Q769 -59 714 -59Q712 -43 703.5 -21.0Q695 1 686 16Q730 15 767.0 14.5Q804 14 817 15Q830 15 834.5 19.5Q839 24 839 37ZM119 439Q117 447 113.0 460.0Q109 473 104.0 486.5Q99 500 94 510Q106 512 118.0 524.0Q130 536 142 554Q151 566 171.0 597.5Q191 629 212.5 671.5Q234 714 251 758L324 728Q302 683 276.0 638.0Q250 593 221.5 552.5Q193 512 165 480V478Q165 478 158.0 474.5Q151 471 142.0 465.0Q133 459 126.0 452.0Q119 445 119 439ZM119 439 118 493 157 517 493 546Q500 531 509.0 515.0Q518 499 525 487Q423 477 353.5 470.0Q284 463 241.5 459.0Q199 455 174.5 451.5Q150 448 138.0 445.5Q126 443 119 439Z" transform="translate(8448 0)"/><path d="M374 500V271H618V500ZM303 568H692V204H303ZM82 799H919V-79H839V724H159V-79H82ZM126 46H885V-25H126Z" transform="translate(9448 0)"/><path d="M677 516H748V468Q748 411 742.0 342.5Q736 274 716.0 201.0Q696 128 654.5 56.0Q613 -16 542 -81Q535 -73 525.0 -63.5Q515 -54 504.0 -45.5Q493 -37 484 -31Q551 29 590.0 95.0Q629 161 647.5 227.0Q666 293 671.5 355.5Q677 418 677 469ZM741 393Q759 303 788.5 221.5Q818 140 863.5 78.5Q909 17 971 -17Q963 -24 953.0 -35.0Q943 -46 934.5 -57.5Q926 -69 919 -79Q854 -38 807.0 31.0Q760 100 730.0 189.5Q700 279 681 382ZM51 745H513V681H51ZM39 317H523V253H39ZM74 595H493V532H74ZM85 457H481V394H85ZM248 292H318V-1Q318 -28 312.0 -43.0Q306 -58 287 -67Q269 -75 240.5 -76.5Q212 -78 169 -78Q167 -64 160.5 -45.5Q154 -27 147 -13Q177 -14 201.0 -14.0Q225 -14 233 -13Q248 -13 248 0ZM247 837H318V555H247ZM124 219 187 203Q168 148 142.0 89.5Q116 31 92 -12Q82 -5 63.5 4.0Q45 13 32 17Q58 58 82.5 112.5Q107 167 124 219ZM376 196 433 219Q447 194 462.0 165.5Q477 137 490.0 110.0Q503 83 510 62L450 34Q443 55 430.5 82.5Q418 110 404.5 140.5Q391 171 376 196ZM595 659H898V590H595ZM600 840 673 829Q661 743 642.0 661.0Q623 579 598.0 508.0Q573 437 540 383Q533 389 522.0 397.5Q511 406 498.5 413.5Q486 421 477 427Q510 476 534.0 542.0Q558 608 574.0 684.0Q590 760 600 840ZM878 659H889L902 662L952 647Q943 602 930.5 554.0Q918 506 904.5 462.5Q891 419 878 386L816 404Q828 435 840.0 476.5Q852 518 861.5 562.0Q871 606 878 645Z" transform="translate(10448 0)"/></g><rect x="25" y="112" width="175" height="125" fill="none" stroke="#1545ba" stroke-width="1.5"/><g fill="#e57539" transform="translate(37 141) scale(0.015 -0.015)"><path d="M278 -13Q209 -13 157.5 29.0Q106 71 78.0 156.0Q50 241 50 369Q50 497 78.0 580.5Q106 664 157.5 705.0Q209 746 278 746Q348 746 399.0 704.5Q450 663 478.0 580.0Q506 497 506 369Q506 241 478.0 156.0Q450 71 399.0 29.0Q348 -13 278 -13ZM278 61Q320 61 351.5 93.0Q383 125 400.5 193.5Q418 262 418 369Q418 476 400.5 543.5Q383 611 351.5 642.5Q320 674 278 674Q237 674 205.0 642.5Q173 611 155.5 543.5Q138 476 138 369Q138 262 155.5 193.5Q173 125 205.0 93.0Q237 61 278 61Z" transform="translate(0 0)"/><path d="M88 0V76H252V623H121V681Q170 690 206.5 703.0Q243 716 273 733H343V76H490V0Z" transform="translate(555 0)"/></g><g fill="#1545ba" transform="translate(37 181) scale(0.022 -0.022)"><path d="M476 540V411H847V540ZM476 728V601H847V728ZM407 794H919V346H407ZM395 228H933V160H395ZM318 22H967V-47H318ZM46 773H358V702H46ZM56 483H343V413H56ZM35 100Q76 112 127.5 127.5Q179 143 236.5 162.5Q294 182 352 201L365 128Q284 101 202.0 73.5Q120 46 54 24ZM170 745H242V125L170 111ZM629 763H694V378H700V-9H623V378H629Z" transform="translate(0 0)"/><path d="M139 586H428V528H139ZM138 406H427V349H138ZM137 217H426V158H137ZM583 367H934V301H583ZM191 751H370V691H191ZM510 789H888V726H510ZM511 180H960V113H511ZM714 462H785V-79H714ZM262 558H317V-27H262ZM865 789H932Q932 789 932.0 779.0Q932 769 931 761Q928 678 923.0 626.0Q918 574 911.0 546.0Q904 518 893 506Q883 494 870.5 488.5Q858 483 839 481Q824 479 795.0 479.5Q766 480 735 482Q734 496 729.5 514.0Q725 532 717 544Q747 542 772.0 541.0Q797 540 807 540Q818 540 825.0 541.5Q832 543 836 549Q843 557 848.0 581.0Q853 605 857.0 653.0Q861 701 865 779ZM585 460 649 448Q634 378 608.5 314.0Q583 250 552 204Q545 209 534.5 215.0Q524 221 513.0 226.5Q502 232 494 235Q526 278 549.0 337.5Q572 397 585 460ZM189 841 257 826Q239 759 213.0 695.0Q187 631 155.5 575.5Q124 520 88 478Q82 484 72.0 492.0Q62 500 51.0 508.5Q40 517 32 522Q85 579 125.5 663.5Q166 748 189 841ZM109 586H173V320Q173 274 170.0 221.0Q167 168 158.5 114.0Q150 60 133.5 9.5Q117 -41 90 -83Q84 -77 73.5 -70.5Q63 -64 52.5 -57.5Q42 -51 34 -48Q68 6 84.0 69.5Q100 133 104.5 198.5Q109 264 109 320ZM407 586H470V5Q470 -18 464.5 -34.0Q459 -50 443 -58Q427 -67 403.0 -69.0Q379 -71 341 -71Q339 -57 333.5 -38.5Q328 -20 321 -7Q347 -8 367.0 -8.0Q387 -8 393 -7Q407 -7 407 6ZM653 769H722Q714 701 694.5 640.5Q675 580 636.5 532.5Q598 485 530 454Q524 466 511.5 481.0Q499 496 488 505Q547 531 580.5 571.5Q614 612 630.0 662.5Q646 713 653 769ZM357 751H372L383 754L429 725Q418 694 403.0 660.5Q388 627 371.5 596.0Q355 565 339 542Q330 549 315.0 558.0Q300 567 288 572Q302 594 315.0 623.5Q328 653 339.5 683.5Q351 714 357 738Z" transform="translate(1000 0)"/><path d="M134 800H865V740H134ZM65 356H938V295H65ZM194 571H409V521H194ZM172 466H410V416H172ZM585 466H830V415H585ZM585 571H806V521H585ZM461 777H533V389H461ZM362 184H431V-72H362ZM584 184H653V-72H584ZM76 681H925V490H855V626H144V490H76ZM143 224H828V162H214V-78H143ZM809 224H882V-5Q882 -31 876.0 -45.5Q870 -60 851 -68Q832 -77 803.5 -78.5Q775 -80 734 -80Q732 -66 724.5 -48.5Q717 -31 710 -17Q740 -18 763.5 -18.0Q787 -18 795 -17Q804 -17 806.5 -14.0Q809 -11 809 -4ZM462 334 543 330Q530 290 515.0 251.5Q500 213 487 185L421 192Q433 222 444.5 262.5Q456 303 462 334Z" transform="translate(2000 0)"/><path d="M65 672H939V599H65ZM531 607Q559 519 601.5 436.5Q644 354 699.5 283.0Q755 212 822.0 157.0Q889 102 967 69Q958 62 947.5 50.5Q937 39 927.5 26.5Q918 14 912 4Q807 55 722.5 143.0Q638 231 575.5 345.5Q513 460 471 590ZM831 554 896 508Q864 470 824.5 429.0Q785 388 745.0 351.0Q705 314 670 285L616 327Q650 355 690.0 394.5Q730 434 767.5 475.5Q805 517 831 554ZM629 786 675 834Q706 819 741.0 798.5Q776 778 807.5 758.0Q839 738 859 721L812 667Q792 685 761.0 706.5Q730 728 695.5 749.0Q661 770 629 786ZM117 501 174 540Q206 513 239.0 480.0Q272 447 300.0 414.0Q328 381 344 354L283 309Q268 336 241.0 370.0Q214 404 181.5 438.5Q149 473 117 501ZM460 838H537V22Q537 -18 526.0 -37.5Q515 -57 490 -67Q465 -76 419.5 -79.0Q374 -82 308 -82Q305 -65 297.0 -42.0Q289 -19 280 -2Q332 -4 375.5 -4.0Q419 -4 434 -4Q448 -3 454.0 2.0Q460 7 460 22ZM43 89Q96 116 168.0 155.5Q240 195 321.0 241.0Q402 287 480 332L503 269Q432 225 358.5 180.5Q285 136 216.5 95.5Q148 55 90 21Z" transform="translate(3000 0)"/></g><g fill="#1545ba" transform="translate(37 215) scale(0.012 -0.012)"><path d="M139 586H428V528H139ZM138 406H427V349H138ZM137 217H426V158H137ZM583 367H934V301H583ZM191 751H370V691H191ZM510 789H888V726H510ZM511 180H960V113H511ZM714 462H785V-79H714ZM262 558H317V-27H262ZM865 789H932Q932 789 932.0 779.0Q932 769 931 761Q928 678 923.0 626.0Q918 574 911.0 546.0Q904 518 893 506Q883 494 870.5 488.5Q858 483 839 481Q824 479 795.0 479.5Q766 480 735 482Q734 496 729.5 514.0Q725 532 717 544Q747 542 772.0 541.0Q797 540 807 540Q818 540 825.0 541.5Q832 543 836 549Q843 557 848.0 581.0Q853 605 857.0 653.0Q861 701 865 779ZM585 460 649 448Q634 378 608.5 314.0Q583 250 552 204Q545 209 534.5 215.0Q524 221 513.0 226.5Q502 232 494 235Q526 278 549.0 337.5Q572 397 585 460ZM189 841 257 826Q239 759 213.0 695.0Q187 631 155.5 575.5Q124 520 88 478Q82 484 72.0 492.0Q62 500 51.0 508.5Q40 517 32 522Q85 579 125.5 663.5Q166 748 189 841ZM109 586H173V320Q173 274 170.0 221.0Q167 168 158.5 114.0Q150 60 133.5 9.5Q117 -41 90 -83Q84 -77 73.5 -70.5Q63 -64 52.5 -57.5Q42 -51 34 -48Q68 6 84.0 69.5Q100 133 104.5 198.5Q109 264 109 320ZM407 586H470V5Q470 -18 464.5 -34.0Q459 -50 443 -58Q427 -67 403.0 -69.0Q379 -71 341 -71Q339 -57 333.5 -38.5Q328 -20 321 -7Q347 -8 367.0 -8.0Q387 -8 393 -7Q407 -7 407 6ZM653 769H722Q714 701 694.5 640.5Q675 580 636.5 532.5Q598 485 530 454Q524 466 511.5 481.0Q499 496 488 505Q547 531 580.5 571.5Q614 612 630.0 662.5Q646 713 653 769ZM357 751H372L383 754L429 725Q418 694 403.0 660.5Q388 627 371.5 596.0Q355 565 339 542Q330 549 315.0 558.0Q300 567 288 572Q302 594 315.0 623.5Q328 653 339.5 683.5Q351 714 357 738Z" transform="translate(0 0)"/><path d="M51 764 109 800Q139 771 169.5 735.0Q200 699 226.5 664.0Q253 629 269 602L205 559Q191 587 165.0 623.0Q139 659 109.5 696.0Q80 733 51 764ZM38 11Q63 51 93.0 106.5Q123 162 154.0 223.0Q185 284 212 343L268 297Q244 242 216.0 184.0Q188 126 159.0 70.0Q130 14 103 -34ZM358 682H861V345H789V610H358ZM306 379H962V307H306ZM663 356Q696 223 771.0 126.0Q846 29 968 -13Q960 -20 950.5 -32.0Q941 -44 932.0 -56.0Q923 -68 917 -78Q832 -43 768.5 16.5Q705 76 662.5 158.0Q620 240 595 342ZM558 838H637V506Q637 447 631.0 383.5Q625 320 607.0 257.0Q589 194 552.5 133.5Q516 73 455.0 18.0Q394 -37 303 -82Q298 -74 288.5 -62.5Q279 -51 268.5 -40.5Q258 -30 249 -22Q339 18 396.5 67.0Q454 116 487.0 171.0Q520 226 535.5 283.0Q551 340 554.5 396.5Q558 453 558 506Z" transform="translate(1000 0)"/><path d="M44 431H960V349H44Z" transform="translate(2000 0)"/><path d="M506 841 573 810Q518 719 442.5 637.5Q367 556 276.5 490.0Q186 424 91 377Q82 394 66.5 413.0Q51 432 35 446Q130 487 218.5 547.5Q307 608 381.5 683.0Q456 758 506 841ZM528 786Q595 704 666.0 641.5Q737 579 813.0 531.5Q889 484 969 444Q954 432 938.5 413.0Q923 394 914 376Q833 419 757.5 471.0Q682 523 609.0 592.0Q536 661 463 753ZM460 545H538V-79H460Z" transform="translate(3000 0)"/><path d="M605 84 653 137Q710 112 766.5 83.5Q823 55 874.0 27.0Q925 -1 962 -25L902 -81Q867 -56 819.0 -28.0Q771 0 716.0 29.5Q661 59 605 84ZM52 209H951V141H52ZM239 644H760V586H239ZM239 501H760V444H239ZM239 357H760V300H239ZM328 133 399 88Q359 57 307.5 25.5Q256 -6 201.0 -33.0Q146 -60 95 -81Q86 -69 69.5 -52.5Q53 -36 40 -26Q91 -6 146.0 20.5Q201 47 249.0 76.5Q297 106 328 133ZM212 792H802V177H727V730H284V177H212Z" transform="translate(4000 0)"/><path d="M251 836 321 816Q293 731 254.0 648.5Q215 566 169.5 493.0Q124 420 74 363Q71 372 63.0 386.0Q55 400 46.5 414.5Q38 429 30 437Q75 486 116.0 550.5Q157 615 191.5 688.0Q226 761 251 836ZM160 579 230 650 232 649V-78H160ZM581 837H654V-74H581ZM298 638H954V566H298ZM416 175H815V106H416ZM690 601Q719 512 763.0 424.5Q807 337 861.0 263.5Q915 190 973 143Q960 133 943.5 116.0Q927 99 916 84Q858 138 804.5 217.5Q751 297 707.0 391.5Q663 486 633 584ZM549 605 605 589Q574 488 528.5 392.5Q483 297 428.0 216.5Q373 136 313 81Q307 90 297.5 101.0Q288 112 278.0 122.0Q268 132 259 138Q318 185 373.0 260.0Q428 335 474.0 424.5Q520 514 549 605Z" transform="translate(5000 0)"/><path d="M93 615H167V-80H93ZM104 791 158 827Q183 803 212.0 773.0Q241 743 267.0 714.5Q293 686 310 665L253 623Q237 645 211.5 674.0Q186 703 157.5 734.0Q129 765 104 791ZM355 784H883V713H355ZM832 784H907V25Q907 -12 897.5 -30.5Q888 -49 865 -59Q840 -68 799.0 -70.5Q758 -73 697 -73Q695 -56 687.5 -34.0Q680 -12 672 3Q702 2 730.0 1.5Q758 1 779.5 1.5Q801 2 809 2Q822 2 827.0 7.0Q832 12 832 25ZM360 536H673V168H360V236H600V468H360ZM322 536H391V103H322Z" transform="translate(6000 0)"/><path d="M176 615V539H380V615ZM176 743V668H380V743ZM108 798H450V484H108ZM49 410H501V351H49ZM499 794H955V733H499ZM252 390H317V9L252 48ZM282 244H483V186H282ZM691 773 767 759Q752 720 736.5 680.5Q721 641 708 613L647 627Q659 659 671.5 700.0Q684 741 691 773ZM168 198Q194 134 235.5 95.5Q277 57 333.5 37.0Q390 17 460.5 10.5Q531 4 615 4Q629 4 662.5 4.0Q696 4 740.0 4.5Q784 5 828.5 5.0Q873 5 909.5 5.5Q946 6 963 6Q955 -5 947.0 -24.0Q939 -43 936 -58H868H614Q520 -58 442.5 -49.5Q365 -41 303.5 -16.0Q242 9 197.0 56.5Q152 104 121 182ZM540 636H907V219H841V579H603V215H540ZM124 302 188 298Q182 177 160.5 82.5Q139 -12 88 -78Q83 -73 72.5 -66.0Q62 -59 51.5 -52.0Q41 -45 33 -41Q83 17 101.5 105.0Q120 193 124 302ZM695 530H759Q756 425 745.5 343.0Q735 261 708.5 201.0Q682 141 631.0 98.0Q580 55 494 27Q489 38 478.5 53.0Q468 68 458 77Q537 101 583.5 139.0Q630 177 653.0 231.0Q676 285 684.5 359.0Q693 433 695 530ZM730 186 774 226Q805 205 839.0 178.5Q873 152 903.5 126.0Q934 100 954 79L908 33Q889 54 859.0 81.0Q829 108 795.5 135.5Q762 163 730 186Z" transform="translate(7000 0)"/></g><path d="M205 173L240 173" fill="none" stroke="#1545ba" stroke-width="2"/><path d="M235 168L240 173" fill="none" stroke="#1545ba" stroke-width="2"/><path d="M240 173L235 178" fill="none" stroke="#1545ba" stroke-width="2"/><rect x="250" y="112" width="175" height="125" fill="none" stroke="#1545ba" stroke-width="1.5"/><g fill="#e57539" transform="translate(262 141) scale(0.015 -0.015)"><path d="M278 -13Q209 -13 157.5 29.0Q106 71 78.0 156.0Q50 241 50 369Q50 497 78.0 580.5Q106 664 157.5 705.0Q209 746 278 746Q348 746 399.0 704.5Q450 663 478.0 580.0Q506 497 506 369Q506 241 478.0 156.0Q450 71 399.0 29.0Q348 -13 278 -13ZM278 61Q320 61 351.5 93.0Q383 125 400.5 193.5Q418 262 418 369Q418 476 400.5 543.5Q383 611 351.5 642.5Q320 674 278 674Q237 674 205.0 642.5Q173 611 155.5 543.5Q138 476 138 369Q138 262 155.5 193.5Q173 125 205.0 93.0Q237 61 278 61Z" transform="translate(0 0)"/><path d="M44 0V54Q159 155 233.5 238.0Q308 321 344.0 392.5Q380 464 380 527Q380 569 365.5 602.0Q351 635 321.0 653.5Q291 672 245 672Q200 672 161.5 648.0Q123 624 93 587L40 639Q84 688 135.0 717.0Q186 746 256 746Q322 746 369.5 719.5Q417 693 443.5 644.5Q470 596 470 531Q470 458 433.5 383.0Q397 308 332.5 230.5Q268 153 182 72Q211 74 242.5 76.5Q274 79 302 79H505V0Z" transform="translate(555 0)"/></g><g fill="#1545ba" transform="translate(262 181) scale(0.022 -0.022)"><path d="M58 778H573V708H58ZM41 449H586V379H41ZM404 760H478V-79H404ZM172 760H243V439Q243 345 233.5 252.5Q224 160 192.5 74.0Q161 -12 93 -86Q88 -78 77.5 -68.5Q67 -59 56.5 -50.0Q46 -41 37 -36Q98 32 126.5 110.0Q155 188 163.5 271.5Q172 355 172 439ZM846 824 917 795Q880 749 832.0 705.0Q784 661 731.5 623.0Q679 585 628 557Q619 570 603.5 585.0Q588 600 574 610Q622 635 673.0 669.0Q724 703 769.5 743.5Q815 784 846 824ZM875 548 943 520Q905 471 854.0 424.0Q803 377 747.5 336.0Q692 295 638 266Q629 278 614.0 293.0Q599 308 584 319Q636 345 690.0 382.0Q744 419 793.0 462.0Q842 505 875 548ZM898 278 968 250Q926 181 866.0 119.5Q806 58 734.5 7.5Q663 -43 586 -79Q577 -65 562.0 -48.0Q547 -31 532 -19Q607 12 676.5 57.5Q746 103 803.5 159.0Q861 215 898 278Z" transform="translate(0 0)"/><path d="M171 465H419V395H171ZM390 465H463Q463 465 463.0 459.5Q463 454 462.5 446.0Q462 438 462 433Q460 321 456.5 251.5Q453 182 447.5 146.0Q442 110 431 96Q419 82 405.5 76.0Q392 70 371 67Q351 65 319.0 65.5Q287 66 250 68Q249 84 243.5 103.5Q238 123 229 138Q263 134 293.0 133.5Q323 133 335 133Q346 133 353.5 135.0Q361 137 367 144Q374 153 378.5 184.5Q383 216 385.5 280.5Q388 345 390 453ZM671 790 716 836Q748 821 782.5 800.5Q817 780 847.0 759.5Q877 739 897 722L850 670Q831 688 801.0 709.5Q771 731 737.0 752.0Q703 773 671 790ZM815 519 890 500Q826 304 715.0 160.0Q604 16 451 -75Q445 -67 435.0 -55.5Q425 -44 414.5 -32.5Q404 -21 396 -13Q548 67 653.0 202.5Q758 338 815 519ZM177 670H951V597H177ZM128 670H206V388Q206 335 202.0 273.0Q198 211 187.0 147.0Q176 83 155.0 22.5Q134 -38 99 -87Q93 -79 81.5 -69.0Q70 -59 57.5 -50.0Q45 -41 36 -37Q78 25 97.5 99.0Q117 173 122.5 248.5Q128 324 128 389ZM544 839H622Q621 700 632.0 575.0Q643 450 663.0 345.5Q683 241 711.5 164.5Q740 88 774.5 46.0Q809 4 847 4Q869 4 879.5 46.5Q890 89 894 189Q907 177 925.5 165.0Q944 153 959 148Q952 62 939.5 14.0Q927 -34 903.5 -53.5Q880 -73 841 -73Q791 -73 749.0 -39.0Q707 -5 674.5 57.0Q642 119 618.0 203.5Q594 288 577.5 390.0Q561 492 553.0 605.5Q545 719 544 839Z" transform="translate(1000 0)"/><path d="M68 667H936V594H68ZM381 434H781V361H381ZM760 434H838Q838 434 837.5 427.0Q837 420 837.0 412.0Q837 404 835 398Q826 256 815.0 168.0Q804 80 790.0 33.0Q776 -14 756 -34Q739 -53 718.5 -60.0Q698 -67 669 -69Q643 -71 597.0 -70.0Q551 -69 501 -66Q500 -49 492.5 -28.5Q485 -8 474 7Q528 3 575.5 1.5Q623 0 643 0Q660 0 671.0 2.5Q682 5 691 12Q706 26 718.5 71.0Q731 116 741.5 201.5Q752 287 760 421ZM342 624H425Q421 545 413.0 464.0Q405 383 386.5 305.0Q368 227 333.5 155.5Q299 84 242.5 23.0Q186 -38 101 -82Q93 -68 77.0 -51.0Q61 -34 46 -23Q127 17 179.5 73.0Q232 129 263.5 194.5Q295 260 310.5 332.5Q326 405 332.5 479.0Q339 553 342 624ZM440 818 512 846Q533 811 554.0 769.5Q575 728 585 698L509 665Q500 695 480.0 738.5Q460 782 440 818Z" transform="translate(2000 0)"/><path d="M460 313H535V-79H460ZM80 765H925V621H852V701H151V621H80ZM64 596H940V535H64ZM52 230H949V166H52ZM433 197 488 171Q444 119 377.5 72.0Q311 25 234.0 -10.5Q157 -46 81 -66Q76 -57 67.5 -46.0Q59 -35 50.5 -24.0Q42 -13 34 -5Q110 11 186.0 41.5Q262 72 327.0 112.5Q392 153 433 197ZM565 198Q608 153 674.5 113.0Q741 73 818.5 42.5Q896 12 972 -5Q965 -12 955.5 -23.5Q946 -35 937.5 -46.5Q929 -58 924 -68Q848 -47 770.0 -11.0Q692 25 624.0 72.0Q556 119 510 173ZM687 573 756 552Q720 484 660.5 436.0Q601 388 518.0 356.5Q435 325 327.5 306.5Q220 288 89 278Q85 293 77.0 310.0Q69 327 61 339Q229 348 353.5 372.5Q478 397 561.5 446.0Q645 495 687 573ZM190 427 243 475Q338 461 432.5 443.5Q527 426 615.5 406.5Q704 387 780.5 366.5Q857 346 917 327L854 274Q780 302 676.0 329.5Q572 357 448.0 382.0Q324 407 190 427ZM431 823 494 846Q510 824 527.0 796.0Q544 768 554 749L488 722Q480 743 463.0 771.5Q446 800 431 823ZM190 427Q228 462 270.5 506.0Q313 550 352.5 598.0Q392 646 420 689L487 667Q458 625 418.5 580.0Q379 535 339.0 495.5Q299 456 265 427Z" transform="translate(3000 0)"/></g><g fill="#1545ba" transform="translate(262 215) scale(0.012 -0.012)"><path d="M68 184Q66 191 62.0 203.5Q58 216 53.5 229.5Q49 243 44 252Q61 255 80.0 272.5Q99 290 123 317Q137 331 162.5 361.5Q188 392 219.5 435.0Q251 478 284.0 527.5Q317 577 345 628L408 590Q344 488 268.5 392.0Q193 296 117 223V221Q117 221 109.5 217.5Q102 214 92.0 208.0Q82 202 75.0 196.0Q68 190 68 184ZM68 184 65 245 103 270 410 316Q410 301 410.5 282.5Q411 264 413 252Q306 234 241.0 222.5Q176 211 141.5 204.5Q107 198 91.5 193.0Q76 188 68 184ZM61 424Q59 432 54.5 445.0Q50 458 45.0 472.0Q40 486 36 495Q50 498 64.5 514.5Q79 531 97 556Q106 568 123.5 596.5Q141 625 163.0 663.5Q185 702 206.5 746.5Q228 791 246 836L317 807Q288 745 253.5 683.0Q219 621 183.0 565.5Q147 510 109 466V464Q109 464 101.5 460.0Q94 456 84.5 450.0Q75 444 68.0 437.0Q61 430 61 424ZM61 424 59 478 95 501 314 521Q311 507 309.5 489.0Q308 471 308 460Q233 453 187.5 447.0Q142 441 116.5 437.5Q91 434 79.0 431.0Q67 428 61 424ZM40 53Q87 61 149.5 72.0Q212 83 282.0 96.0Q352 109 422 122L427 56Q326 36 227.5 16.0Q129 -4 52 -20ZM524 656H881V586H524ZM850 656H923Q923 656 923.0 648.5Q923 641 922.5 632.0Q922 623 922 618Q917 449 911.5 332.5Q906 216 899.5 141.5Q893 67 883.0 26.0Q873 -15 859 -33Q842 -54 824.0 -62.5Q806 -71 780 -73Q755 -76 715.5 -75.5Q676 -75 633 -72Q632 -56 626.0 -36.0Q620 -16 609 0Q657 -4 696.0 -5.0Q735 -6 753 -6Q767 -7 776.5 -3.5Q786 0 794 10Q805 23 814.0 62.0Q823 101 829.5 175.0Q836 249 841.0 363.5Q846 478 850 640ZM566 840 638 825Q619 751 593.5 680.5Q568 610 537.5 548.5Q507 487 472 439Q465 444 453.5 452.5Q442 461 430.0 468.5Q418 476 409 481Q444 524 473.5 582.0Q503 640 526.5 706.0Q550 772 566 840ZM498 415 549 457Q587 426 625.0 388.0Q663 350 695.5 312.5Q728 275 747 243L691 196Q673 227 641.5 265.5Q610 304 572.5 343.0Q535 382 498 415Z" transform="translate(0 0)"/><path d="M211 532H795V459H211ZM499 295H836V225H499ZM460 498H538V-9L460 2ZM224 378 300 370Q280 219 231.0 105.0Q182 -9 97 -83Q92 -76 81.0 -66.5Q70 -57 58.0 -47.5Q46 -38 36 -33Q120 32 164.0 137.0Q208 242 224 378ZM272 250Q298 174 340.0 126.5Q382 79 437.0 54.0Q492 29 558.5 20.0Q625 11 702 11Q713 11 738.0 11.0Q763 11 794.5 11.0Q826 11 859.0 11.0Q892 11 919.0 11.5Q946 12 960 12Q955 3 949.0 -10.5Q943 -24 938.5 -38.5Q934 -53 932 -64H882H698Q609 -64 533.5 -52.5Q458 -41 397.5 -10.0Q337 21 290.0 78.5Q243 136 211 227ZM82 727H918V509H841V656H156V509H82ZM426 826 500 847Q517 818 534.5 783.5Q552 749 559 724L482 700Q475 724 459.0 760.0Q443 796 426 826Z" transform="translate(1000 0)"/><path d="M452 541H834V470H452ZM75 -15Q107 15 149.0 56.5Q191 98 234.5 145.0Q278 192 317 238L358 181Q323 139 284.0 93.5Q245 48 204.5 4.5Q164 -39 127 -77ZM116 528 158 577Q188 562 222.5 542.5Q257 523 289.0 504.5Q321 486 342 472L299 415Q278 430 246.5 450.0Q215 470 180.5 491.0Q146 512 116 528ZM56 338 97 389Q127 376 162.5 359.5Q198 343 231.0 326.5Q264 310 286 297L244 239Q223 253 191.0 270.5Q159 288 123.0 306.0Q87 324 56 338ZM796 541H871V288Q871 257 862.5 239.0Q854 221 827 212Q802 204 759.0 202.0Q716 200 652 200Q649 216 640.5 236.0Q632 256 623 271Q659 270 689.5 269.5Q720 269 742.5 269.5Q765 270 773 270Q787 271 791.5 275.0Q796 279 796 288ZM410 541H487V65Q487 42 493.0 29.5Q499 17 516.5 13.0Q534 9 568 9Q578 9 602.0 9.0Q626 9 656.5 9.0Q687 9 717.5 9.0Q748 9 773.5 9.0Q799 9 811 9Q842 9 856.5 19.0Q871 29 878.0 59.0Q885 89 888 145Q902 136 922.5 127.5Q943 119 960 115Q954 46 941.0 7.5Q928 -31 898.5 -47.0Q869 -63 815 -63Q806 -63 781.0 -63.0Q756 -63 723.0 -63.0Q690 -63 656.5 -63.0Q623 -63 598.0 -63.0Q573 -63 565 -63Q506 -63 472.0 -52.5Q438 -42 424.0 -14.0Q410 14 410 65ZM58 753H944V683H58ZM283 840H359V586H283ZM638 840H715V586H638Z" transform="translate(2000 0)"/><path d="M208 333H742V269H208ZM265 480H739V419H265ZM458 705H529V64H458ZM222 625H778V562H222ZM720 333H787Q787 333 786.5 323.0Q786 313 784 305Q777 228 768.0 189.0Q759 150 744 135Q733 125 721.5 120.5Q710 116 693 115Q679 114 653.0 113.5Q627 113 599 115Q598 129 593.5 145.5Q589 162 582 175Q610 172 631.5 171.5Q653 171 663 171Q673 171 679.5 172.0Q686 173 690 178Q699 188 706.0 220.5Q713 253 720 324ZM82 799H920V-79H846V733H153V-79H82ZM126 35H885V-30H126Z" transform="translate(3000 0)"/><path d="M227 450H833V379H227ZM277 702H876V630H277ZM57 238H681V165H57ZM814 450H891Q891 450 890.5 443.0Q890 436 889.5 427.5Q889 419 888 413Q874 270 859.0 179.5Q844 89 826.5 39.0Q809 -11 786 -33Q767 -52 745.5 -59.0Q724 -66 691 -68Q664 -69 615.0 -68.0Q566 -67 512 -64Q511 -47 503.5 -26.0Q496 -5 484 11Q542 6 594.5 4.5Q647 3 669 3Q688 3 700.0 5.0Q712 7 721 15Q742 32 758.0 79.5Q774 127 787.5 215.0Q801 303 813 437ZM261 818 336 810Q326 758 314.5 699.5Q303 641 290.5 582.5Q278 524 266.0 471.5Q254 419 243 379L164 380Q176 422 189.0 475.5Q202 529 215.0 589.0Q228 649 239.5 708.0Q251 767 261 818Z" transform="translate(4000 0)"/><path d="M63 184Q62 192 57.0 205.5Q52 219 47.5 233.0Q43 247 38 257Q55 260 74.0 277.5Q93 295 117 322Q130 335 155.5 366.0Q181 397 212.0 439.0Q243 481 275.0 530.0Q307 579 334 629L403 587Q339 487 265.0 392.0Q191 297 116 225V223Q116 223 108.0 219.5Q100 216 89.5 210.0Q79 204 71.0 197.0Q63 190 63 184ZM63 184 60 247 99 273 398 322Q397 307 398.5 287.5Q400 268 402 256Q297 237 233.5 225.0Q170 213 136.5 206.0Q103 199 87.5 194.0Q72 189 63 184ZM56 427Q54 435 49.5 449.0Q45 463 40.0 477.5Q35 492 30 502Q44 505 58.0 521.0Q72 537 87 561Q96 573 112.0 600.5Q128 628 148.0 666.0Q168 704 187.5 747.0Q207 790 222 834L299 802Q273 742 241.5 682.5Q210 623 176.0 568.5Q142 514 107 470V468Q107 468 99.5 464.0Q92 460 81.5 453.5Q71 447 63.5 440.0Q56 433 56 427ZM56 427 55 483 93 507 304 525Q301 511 299.0 493.0Q297 475 297 463Q226 455 181.0 449.5Q136 444 111.5 440.0Q87 436 75.0 433.0Q63 430 56 427ZM35 53Q82 61 141.5 72.5Q201 84 267.5 97.5Q334 111 400 124L406 55Q312 33 217.5 13.0Q123 -7 48 -24ZM408 706H943V634H408ZM433 478H926V406H433ZM500 32H862V-36H500ZM639 841H716V441H639ZM459 304H901V-75H826V236H532V-79H459Z" transform="translate(5000 0)"/><path d="M62 309H939V240H62ZM461 767H540V-80H461ZM434 280 497 252Q450 189 383.0 131.0Q316 73 239.5 27.5Q163 -18 88 -47Q82 -38 73.0 -26.0Q64 -14 54.5 -3.5Q45 7 36 15Q92 33 149.0 61.0Q206 89 259.5 124.0Q313 159 357.5 199.0Q402 239 434 280ZM562 283Q595 242 641.5 203.0Q688 164 742.0 129.5Q796 95 853.5 67.0Q911 39 965 21Q957 14 947.0 2.5Q937 -9 928.5 -21.0Q920 -33 914 -42Q859 -20 801.5 11.5Q744 43 689.5 82.0Q635 121 587.0 165.5Q539 210 503 256ZM236 563V459H767V563ZM236 727V625H767V727ZM159 792H848V394H159Z" transform="translate(6000 0)"/></g><path d="M430 173L465 173" fill="none" stroke="#1545ba" stroke-width="2"/><path d="M460 168L465 173" fill="none" stroke="#1545ba" stroke-width="2"/><path d="M465 173L460 178" fill="none" stroke="#1545ba" stroke-width="2"/><rect x="475" y="112" width="175" height="125" fill="none" stroke="#1545ba" stroke-width="1.5"/><g fill="#e57539" transform="translate(487 141) scale(0.015 -0.015)"><path d="M278 -13Q209 -13 157.5 29.0Q106 71 78.0 156.0Q50 241 50 369Q50 497 78.0 580.5Q106 664 157.5 705.0Q209 746 278 746Q348 746 399.0 704.5Q450 663 478.0 580.0Q506 497 506 369Q506 241 478.0 156.0Q450 71 399.0 29.0Q348 -13 278 -13ZM278 61Q320 61 351.5 93.0Q383 125 400.5 193.5Q418 262 418 369Q418 476 400.5 543.5Q383 611 351.5 642.5Q320 674 278 674Q237 674 205.0 642.5Q173 611 155.5 543.5Q138 476 138 369Q138 262 155.5 193.5Q173 125 205.0 93.0Q237 61 278 61Z" transform="translate(0 0)"/><path d="M263 -13Q206 -13 162.5 1.0Q119 15 86.0 38.0Q53 61 29 88L76 147Q108 114 151.5 88.5Q195 63 257 63Q301 63 334.5 79.5Q368 96 387.0 126.5Q406 157 406 199Q406 243 384.5 276.0Q363 309 313.0 327.5Q263 346 178 346V416Q254 416 298.0 434.5Q342 453 361.5 485.0Q381 517 381 556Q381 609 348.0 640.5Q315 672 257 672Q213 672 174.5 652.0Q136 632 105 601L56 659Q98 697 147.5 721.5Q197 746 260 746Q322 746 370.5 724.5Q419 703 446.5 662.0Q474 621 474 563Q474 496 438.0 452.0Q402 408 344 387V382Q387 372 422.0 347.0Q457 322 478.0 284.0Q499 246 499 196Q499 131 467.0 84.0Q435 37 382.0 12.0Q329 -13 263 -13Z" transform="translate(555 0)"/></g><g fill="#1545ba" transform="translate(487 181) scale(0.022 -0.022)"><path d="M227 546H771V477H227ZM56 360H943V290H56ZM327 315H404Q399 230 384.5 165.5Q370 101 336.5 53.0Q303 5 242.5 -27.5Q182 -60 84 -81Q81 -71 74.0 -59.5Q67 -48 59.0 -37.0Q51 -26 44 -19Q133 -2 187.5 25.5Q242 53 271.0 92.5Q300 132 311.5 187.0Q323 242 327 315ZM577 318H653V39Q653 18 661.5 11.5Q670 5 701 5Q709 5 727.5 5.0Q746 5 769.0 5.0Q792 5 812.0 5.0Q832 5 841 5Q860 5 869.5 14.0Q879 23 883.0 52.0Q887 81 888 138Q897 132 909.0 126.0Q921 120 934.5 115.5Q948 111 957 108Q953 40 942.5 2.0Q932 -36 909.5 -50.0Q887 -64 847 -64Q840 -64 818.5 -64.0Q797 -64 770.5 -64.0Q744 -64 722.5 -64.0Q701 -64 694 -64Q647 -64 622.0 -55.0Q597 -46 587.0 -23.5Q577 -1 577 39ZM82 725H916V503H838V653H157V503H82ZM421 827 496 849Q517 817 537.0 777.0Q557 737 566 708L487 683Q479 711 460.0 752.0Q441 793 421 827Z" transform="translate(0 0)"/><path d="M171 465H419V395H171ZM390 465H463Q463 465 463.0 459.5Q463 454 462.5 446.0Q462 438 462 433Q460 321 456.5 251.5Q453 182 447.5 146.0Q442 110 431 96Q419 82 405.5 76.0Q392 70 371 67Q351 65 319.0 65.5Q287 66 250 68Q249 84 243.5 103.5Q238 123 229 138Q263 134 293.0 133.5Q323 133 335 133Q346 133 353.5 135.0Q361 137 367 144Q374 153 378.5 184.5Q383 216 385.5 280.5Q388 345 390 453ZM671 790 716 836Q748 821 782.5 800.5Q817 780 847.0 759.5Q877 739 897 722L850 670Q831 688 801.0 709.5Q771 731 737.0 752.0Q703 773 671 790ZM815 519 890 500Q826 304 715.0 160.0Q604 16 451 -75Q445 -67 435.0 -55.5Q425 -44 414.5 -32.5Q404 -21 396 -13Q548 67 653.0 202.5Q758 338 815 519ZM177 670H951V597H177ZM128 670H206V388Q206 335 202.0 273.0Q198 211 187.0 147.0Q176 83 155.0 22.5Q134 -38 99 -87Q93 -79 81.5 -69.0Q70 -59 57.5 -50.0Q45 -41 36 -37Q78 25 97.5 99.0Q117 173 122.5 248.5Q128 324 128 389ZM544 839H622Q621 700 632.0 575.0Q643 450 663.0 345.5Q683 241 711.5 164.5Q740 88 774.5 46.0Q809 4 847 4Q869 4 879.5 46.5Q890 89 894 189Q907 177 925.5 165.0Q944 153 959 148Q952 62 939.5 14.0Q927 -34 903.5 -53.5Q880 -73 841 -73Q791 -73 749.0 -39.0Q707 -5 674.5 57.0Q642 119 618.0 203.5Q594 288 577.5 390.0Q561 492 553.0 605.5Q545 719 544 839Z" transform="translate(1000 0)"/><path d="M651 427 727 406Q673 268 582.0 173.5Q491 79 368.0 17.5Q245 -44 93 -82Q89 -73 81.0 -60.5Q73 -48 64.0 -35.0Q55 -22 47 -14Q198 17 317.0 73.0Q436 129 520.5 215.5Q605 302 651 427ZM318 597 391 569Q357 526 312.5 483.0Q268 440 220.5 402.5Q173 365 129 336Q123 344 112.0 354.5Q101 365 90.0 375.5Q79 386 70 392Q114 417 160.0 450.5Q206 484 247.5 521.5Q289 559 318 597ZM352 422Q422 249 575.0 140.5Q728 32 958 -5Q950 -13 941.0 -25.0Q932 -37 924.0 -50.0Q916 -63 910 -74Q753 -44 632.0 18.5Q511 81 425.0 176.5Q339 272 285 401ZM67 701H931V628H67ZM618 555 677 598Q722 567 771.5 529.0Q821 491 864.5 452.5Q908 414 936 382L873 332Q848 365 805.5 404.5Q763 444 714.0 483.5Q665 523 618 555ZM418 825 489 849Q510 820 531.0 782.5Q552 745 562 719L489 690Q479 717 459.0 755.0Q439 793 418 825Z" transform="translate(2000 0)"/><path d="M345 618H954V542H345ZM751 828H828V23Q828 -20 815.0 -40.0Q802 -60 774 -69Q745 -78 692.0 -80.0Q639 -82 558 -81Q556 -71 551.0 -57.5Q546 -44 540.0 -30.5Q534 -17 528 -6Q570 -8 609.5 -8.5Q649 -9 678.0 -8.5Q707 -8 718 -8Q736 -7 743.5 -0.5Q751 6 751 23ZM408 406 473 437Q499 398 527.5 353.0Q556 308 582.0 266.0Q608 224 624 193L554 155Q539 187 514.5 230.0Q490 273 462.0 319.5Q434 366 408 406ZM186 568 261 643V642V-78H186ZM295 834 368 811Q334 724 289.0 640.0Q244 556 192.0 482.5Q140 409 84 352Q80 361 71.5 375.5Q63 390 54.0 404.0Q45 418 37 427Q89 476 137.0 541.0Q185 606 225.5 681.0Q266 756 295 834Z" transform="translate(3000 0)"/></g><g fill="#1545ba" transform="translate(487 215) scale(0.012 -0.012)"><path d="M49 650H352V580H49ZM179 840H248V-79H179ZM177 605 222 590Q212 531 196.5 467.0Q181 403 161.0 342.0Q141 281 118.5 228.5Q96 176 71 138Q67 149 60.5 162.5Q54 176 46.5 189.0Q39 202 33 211Q55 244 77.0 290.0Q99 336 118.0 389.5Q137 443 152.5 498.5Q168 554 177 605ZM245 543Q252 532 268.5 506.5Q285 481 304.5 450.5Q324 420 339.5 394.5Q355 369 361 357L316 304Q308 323 293.5 352.0Q279 381 263.0 413.0Q247 445 232.0 472.5Q217 500 208 514ZM656 807Q680 769 716.0 728.5Q752 688 794.0 649.0Q836 610 880.5 576.5Q925 543 966 519Q959 511 951.5 498.5Q944 486 938.0 473.5Q932 461 927 451Q869 490 807.5 543.0Q746 596 692.0 656.0Q638 716 601 771ZM624 847 690 823Q652 746 598.5 675.5Q545 605 483.0 545.0Q421 485 356 440Q352 448 343.5 459.5Q335 471 326.5 482.5Q318 494 311 502Q374 541 433.0 594.5Q492 648 541.0 712.5Q590 777 624 847ZM468 530H807V465H468ZM397 355 456 370Q471 333 484.5 289.5Q498 246 508.5 204.5Q519 163 523 131L461 113Q458 146 447.5 188.0Q437 230 424.0 273.5Q411 317 397 355ZM591 383 650 391Q660 353 669.0 310.0Q678 267 684.5 226.0Q691 185 694 153L631 142Q629 175 623.0 216.5Q617 258 608.5 301.5Q600 345 591 383ZM842 391 909 373Q885 313 855.5 246.0Q826 179 796.0 116.0Q766 53 738 6L683 23Q704 59 726.0 104.5Q748 150 769.5 200.5Q791 251 810.0 300.0Q829 349 842 391ZM343 35H938V-32H343Z" transform="translate(0 0)"/><path d="M295 218V134H700V218ZM295 352V270H700V352ZM221 406H778V80H221ZM57 713H944V647H57ZM460 840H534V437H460ZM417 693 479 668Q446 620 401.0 574.5Q356 529 303.5 489.5Q251 450 195.5 418.0Q140 386 85 364Q80 374 71.0 384.5Q62 395 53.0 406.0Q44 417 36 424Q89 443 144.0 471.5Q199 500 250.0 535.5Q301 571 344.0 611.0Q387 651 417 693ZM576 693Q606 652 649.5 613.0Q693 574 745.0 540.0Q797 506 853.0 478.5Q909 451 964 434Q956 427 946.5 416.0Q937 405 928.5 393.5Q920 382 914 372Q858 393 802.0 424.0Q746 455 693.0 493.5Q640 532 594.5 576.5Q549 621 515 668ZM74 20H930V-48H74Z" transform="translate(1000 0)"/><path d="M469 606H545V25Q545 -10 535.5 -28.0Q526 -46 500 -55Q475 -64 432.5 -66.5Q390 -69 326 -69Q323 -53 315.0 -31.5Q307 -10 298 5Q349 3 390.5 2.5Q432 2 446 3Q459 4 464.0 8.5Q469 13 469 25ZM201 798H752V729H201ZM730 798H749L766 801L818 764Q780 725 729.5 686.5Q679 648 623.5 615.0Q568 582 513 557Q506 568 492.5 582.5Q479 597 469 606Q518 626 568.0 656.0Q618 686 661.0 719.5Q704 753 730 783ZM352 514H659V450H352ZM69 582H286V513H69ZM334 360H676V295H334ZM288 202H721V136H288ZM887 590 947 542Q921 510 890.5 476.5Q860 443 829.0 412.5Q798 382 771 358L724 399Q750 423 780.0 456.0Q810 489 838.5 524.5Q867 560 887 590ZM735 613Q752 500 782.0 397.5Q812 295 857.5 214.5Q903 134 967 85Q958 78 947.5 67.0Q937 56 927.5 44.0Q918 32 911 22Q845 80 797.5 168.0Q750 256 719.0 367.0Q688 478 669 602ZM266 582H281L295 585L341 568Q322 440 286.0 333.5Q250 227 201.5 145.0Q153 63 95 10Q89 19 78.5 29.5Q68 40 57.0 49.5Q46 59 37 65Q93 114 139.0 188.5Q185 263 217.5 358.5Q250 454 266 565Z" transform="translate(2000 0)"/><path d="M340 733H954V666H340ZM330 470H959V402H330ZM499 29H848V-38H499ZM486 840H559V574H486ZM734 840H807V574H734ZM457 276H899V-76H826V208H527V-80H457ZM567 586 640 573Q603 427 534.0 312.5Q465 198 367 124Q362 132 352.5 142.5Q343 153 332.5 163.0Q322 173 314 180Q409 245 472.5 349.5Q536 454 567 586ZM96 769 146 814Q174 793 204.0 766.5Q234 740 260.5 714.0Q287 688 303 667L251 615Q235 636 209.0 663.0Q183 690 153.5 717.5Q124 745 96 769ZM170 -52 158 17 180 48 339 150Q342 135 348.5 115.5Q355 96 361 84Q305 46 269.0 22.0Q233 -2 213.5 -16.0Q194 -30 184.5 -37.5Q175 -45 170 -52ZM44 526H220V454H44ZM170 -52Q165 -44 156.5 -34.0Q148 -24 139.0 -15.0Q130 -6 122 -1Q133 7 146.0 22.5Q159 38 169.0 59.5Q179 81 179 107V526H251V56Q251 56 243.0 48.0Q235 40 223.0 27.0Q211 14 198.5 -1.0Q186 -16 178.0 -29.5Q170 -43 170 -52Z" transform="translate(3000 0)"/><path d="M131 679H435V25H131V93H366V612H131ZM87 679H156V-54H87ZM126 401H402V335H126ZM240 842 321 828Q306 781 288.5 733.0Q271 685 256 651L195 666Q204 691 212.5 722.0Q221 753 228.5 785.0Q236 817 240 842ZM578 682H885V613H578ZM858 682H929Q929 682 929.0 675.0Q929 668 929.0 658.5Q929 649 928 644Q922 472 916.5 353.0Q911 234 903.0 158.5Q895 83 884.5 41.0Q874 -1 859 -19Q842 -41 823.5 -49.5Q805 -58 778 -61Q753 -63 712.5 -62.5Q672 -62 629 -59Q628 -43 621.5 -22.0Q615 -1 604 13Q654 9 694.5 8.0Q735 7 753 7Q768 7 777.5 10.5Q787 14 796 24Q808 37 817.5 77.5Q827 118 834.0 193.0Q841 268 847.0 384.5Q853 501 858 666ZM598 844 670 828Q652 753 626.5 681.5Q601 610 570.5 547.0Q540 484 506 436Q499 442 487.5 450.5Q476 459 464.0 466.5Q452 474 443 479Q478 524 507.0 582.5Q536 641 559.0 708.0Q582 775 598 844ZM552 423 611 456Q639 421 669.5 379.0Q700 337 726.5 298.0Q753 259 769 229L705 189Q690 220 664.5 260.5Q639 301 609.5 343.5Q580 386 552 423Z" transform="translate(4000 0)"/><path d="M350 314H428Q421 239 403.5 176.5Q386 114 351.0 65.0Q316 16 255.5 -20.5Q195 -57 102 -82Q98 -72 91.0 -60.0Q84 -48 75.5 -36.5Q67 -25 59 -18Q145 3 199.5 33.5Q254 64 284.5 105.0Q315 146 329.5 198.0Q344 250 350 314ZM228 812 292 840Q314 814 336.0 783.0Q358 752 376.0 721.5Q394 691 404 668L336 634Q326 658 308.5 689.0Q291 720 270.0 752.5Q249 785 228 812ZM699 840 777 815Q755 779 729.0 740.0Q703 701 677.0 665.5Q651 630 628 603L564 627Q587 655 612.5 692.5Q638 730 661.0 769.0Q684 808 699 840ZM570 315H648V41Q648 19 657.0 12.5Q666 6 698 6Q705 6 724.5 6.0Q744 6 767.0 6.0Q790 6 810.0 6.0Q830 6 840 6Q859 6 868.5 15.0Q878 24 882.0 51.0Q886 78 888 132Q896 126 908.0 120.0Q920 114 933.5 109.5Q947 105 957 102Q953 37 942.5 1.0Q932 -35 909.5 -49.0Q887 -63 847 -63Q841 -63 825.0 -63.0Q809 -63 788.5 -63.0Q768 -63 747.5 -63.0Q727 -63 711.5 -63.0Q696 -63 689 -63Q644 -63 617.5 -54.0Q591 -45 580.5 -22.5Q570 0 570 41ZM236 571V366H759V571ZM160 639H839V298H160Z" transform="translate(5000 0)"/><path d="M55 773H386V702H55ZM70 483H366V413H70ZM43 100Q88 111 144.5 126.5Q201 142 264.5 161.0Q328 180 392 199L401 129Q312 102 221.5 75.5Q131 49 60 27ZM189 741H261V126L189 112ZM432 791H881V259H807V725H504V259H432ZM660 276H730V39Q730 18 737.5 10.5Q745 3 766 3H848Q866 3 874.5 16.0Q883 29 887.5 65.5Q892 102 894 174Q907 162 924.0 155.0Q941 148 955 144Q950 65 942.0 22.0Q934 -21 912.5 -37.5Q891 -54 848 -54H756Q704 -54 682.0 -36.5Q660 -19 660 32ZM617 640H687V445Q687 381 675.5 310.0Q664 239 632.0 168.0Q600 97 539.0 32.5Q478 -32 379 -83Q376 -75 367.5 -65.0Q359 -55 349.5 -44.5Q340 -34 332 -29Q427 20 484.0 78.5Q541 137 569.5 199.5Q598 262 607.5 325.0Q617 388 617 447Z" transform="translate(6000 0)"/></g><path d="M655 173L690 173" fill="none" stroke="#1545ba" stroke-width="2"/><path d="M685 168L690 173" fill="none" stroke="#1545ba" stroke-width="2"/><path d="M690 173L685 178" fill="none" stroke="#1545ba" stroke-width="2"/><rect x="700" y="112" width="175" height="125" fill="none" stroke="#1545ba" stroke-width="1.5"/><g fill="#e57539" transform="translate(712 141) scale(0.015 -0.015)"><path d="M278 -13Q209 -13 157.5 29.0Q106 71 78.0 156.0Q50 241 50 369Q50 497 78.0 580.5Q106 664 157.5 705.0Q209 746 278 746Q348 746 399.0 704.5Q450 663 478.0 580.0Q506 497 506 369Q506 241 478.0 156.0Q450 71 399.0 29.0Q348 -13 278 -13ZM278 61Q320 61 351.5 93.0Q383 125 400.5 193.5Q418 262 418 369Q418 476 400.5 543.5Q383 611 351.5 642.5Q320 674 278 674Q237 674 205.0 642.5Q173 611 155.5 543.5Q138 476 138 369Q138 262 155.5 193.5Q173 125 205.0 93.0Q237 61 278 61Z" transform="translate(0 0)"/><path d="M340 0V500Q340 527 342.0 566.0Q344 605 345 633H341Q327 607 312.5 579.5Q298 552 282 525L115 275H524V202H20V262L325 733H426V0Z" transform="translate(555 0)"/></g><g fill="#1545ba" transform="translate(712 181) scale(0.022 -0.022)"><path d="M549 645H956V574H549ZM577 840 654 828Q637 731 610.0 641.0Q583 551 547.0 474.0Q511 397 463 338Q458 346 448.5 358.0Q439 370 428.5 382.0Q418 394 409 401Q453 452 485.0 521.5Q517 591 540.0 672.0Q563 753 577 840ZM811 610 885 600Q858 432 808.0 303.0Q758 174 677.0 79.5Q596 -15 475 -81Q471 -73 462.0 -61.5Q453 -50 444.0 -38.5Q435 -27 426 -19Q543 38 620.0 125.0Q697 212 742.5 333.0Q788 454 811 610ZM577 582Q609 450 661.0 332.0Q713 214 788.5 124.5Q864 35 964 -15Q956 -22 945.5 -32.5Q935 -43 926.5 -54.5Q918 -66 912 -76Q809 -19 732.5 77.0Q656 173 603.0 298.5Q550 424 516 569ZM324 825H398V-81H324ZM92 100 85 171 119 202 358 281Q361 265 366.5 246.5Q372 228 376 216Q290 185 237.0 165.0Q184 145 155.5 133.0Q127 121 113.5 114.0Q100 107 92 100ZM92 100Q89 110 84.0 122.5Q79 135 73.0 148.0Q67 161 61 169Q72 176 84.0 191.5Q96 207 96 237V729H170V170Q170 170 158.0 163.0Q146 156 131.0 145.0Q116 134 104.0 122.0Q92 110 92 100Z" transform="translate(0 0)"/><path d="M97 318H565V251H97ZM294 425H365V38H294ZM62 42Q125 52 209.0 66.5Q293 81 387.0 98.5Q481 116 575 133L579 67Q490 50 400.0 32.0Q310 14 227.5 -1.5Q145 -17 79 -30ZM71 774H585V708H71ZM379 643 434 675Q462 641 491.5 602.0Q521 563 546.0 526.0Q571 489 585 460L528 422Q514 451 489.5 489.5Q465 528 436.0 568.5Q407 609 379 643ZM641 754H711V148H641ZM839 824H912V37Q912 2 903.0 -16.5Q894 -35 871 -44Q848 -53 808.5 -56.0Q769 -59 714 -59Q712 -43 703.5 -21.0Q695 1 686 16Q730 15 767.0 14.5Q804 14 817 15Q830 15 834.5 19.5Q839 24 839 37ZM119 439Q117 447 113.0 460.0Q109 473 104.0 486.5Q99 500 94 510Q106 512 118.0 524.0Q130 536 142 554Q151 566 171.0 597.5Q191 629 212.5 671.5Q234 714 251 758L324 728Q302 683 276.0 638.0Q250 593 221.5 552.5Q193 512 165 480V478Q165 478 158.0 474.5Q151 471 142.0 465.0Q133 459 126.0 452.0Q119 445 119 439ZM119 439 118 493 157 517 493 546Q500 531 509.0 515.0Q518 499 525 487Q423 477 353.5 470.0Q284 463 241.5 459.0Q199 455 174.5 451.5Q150 448 138.0 445.5Q126 443 119 439Z" transform="translate(1000 0)"/><path d="M374 500V271H618V500ZM303 568H692V204H303ZM82 799H919V-79H839V724H159V-79H82ZM126 46H885V-25H126Z" transform="translate(2000 0)"/><path d="M677 516H748V468Q748 411 742.0 342.5Q736 274 716.0 201.0Q696 128 654.5 56.0Q613 -16 542 -81Q535 -73 525.0 -63.5Q515 -54 504.0 -45.5Q493 -37 484 -31Q551 29 590.0 95.0Q629 161 647.5 227.0Q666 293 671.5 355.5Q677 418 677 469ZM741 393Q759 303 788.5 221.5Q818 140 863.5 78.5Q909 17 971 -17Q963 -24 953.0 -35.0Q943 -46 934.5 -57.5Q926 -69 919 -79Q854 -38 807.0 31.0Q760 100 730.0 189.5Q700 279 681 382ZM51 745H513V681H51ZM39 317H523V253H39ZM74 595H493V532H74ZM85 457H481V394H85ZM248 292H318V-1Q318 -28 312.0 -43.0Q306 -58 287 -67Q269 -75 240.5 -76.5Q212 -78 169 -78Q167 -64 160.5 -45.5Q154 -27 147 -13Q177 -14 201.0 -14.0Q225 -14 233 -13Q248 -13 248 0ZM247 837H318V555H247ZM124 219 187 203Q168 148 142.0 89.5Q116 31 92 -12Q82 -5 63.5 4.0Q45 13 32 17Q58 58 82.5 112.5Q107 167 124 219ZM376 196 433 219Q447 194 462.0 165.5Q477 137 490.0 110.0Q503 83 510 62L450 34Q443 55 430.5 82.5Q418 110 404.5 140.5Q391 171 376 196ZM595 659H898V590H595ZM600 840 673 829Q661 743 642.0 661.0Q623 579 598.0 508.0Q573 437 540 383Q533 389 522.0 397.5Q511 406 498.5 413.5Q486 421 477 427Q510 476 534.0 542.0Q558 608 574.0 684.0Q590 760 600 840ZM878 659H889L902 662L952 647Q943 602 930.5 554.0Q918 506 904.5 462.5Q891 419 878 386L816 404Q828 435 840.0 476.5Q852 518 861.5 562.0Q871 606 878 645Z" transform="translate(3000 0)"/></g><g fill="#1545ba" transform="translate(712 215) scale(0.012 -0.012)"><path d="M374 500V271H618V500ZM303 568H692V204H303ZM82 799H919V-79H839V724H159V-79H82ZM126 46H885V-25H126Z" transform="translate(0 0)"/><path d="M97 318H565V251H97ZM294 425H365V38H294ZM62 42Q125 52 209.0 66.5Q293 81 387.0 98.5Q481 116 575 133L579 67Q490 50 400.0 32.0Q310 14 227.5 -1.5Q145 -17 79 -30ZM71 774H585V708H71ZM379 643 434 675Q462 641 491.5 602.0Q521 563 546.0 526.0Q571 489 585 460L528 422Q514 451 489.5 489.5Q465 528 436.0 568.5Q407 609 379 643ZM641 754H711V148H641ZM839 824H912V37Q912 2 903.0 -16.5Q894 -35 871 -44Q848 -53 808.5 -56.0Q769 -59 714 -59Q712 -43 703.5 -21.0Q695 1 686 16Q730 15 767.0 14.5Q804 14 817 15Q830 15 834.5 19.5Q839 24 839 37ZM119 439Q117 447 113.0 460.0Q109 473 104.0 486.5Q99 500 94 510Q106 512 118.0 524.0Q130 536 142 554Q151 566 171.0 597.5Q191 629 212.5 671.5Q234 714 251 758L324 728Q302 683 276.0 638.0Q250 593 221.5 552.5Q193 512 165 480V478Q165 478 158.0 474.5Q151 471 142.0 465.0Q133 459 126.0 452.0Q119 445 119 439ZM119 439 118 493 157 517 493 546Q500 531 509.0 515.0Q518 499 525 487Q423 477 353.5 470.0Q284 463 241.5 459.0Q199 455 174.5 451.5Q150 448 138.0 445.5Q126 443 119 439Z" transform="translate(1000 0)"/><path d="M55 766H946V691H55ZM441 707H520V-79H441ZM484 470 534 527Q579 506 629.0 479.0Q679 452 728.0 423.5Q777 395 819.5 368.0Q862 341 892 318L839 250Q810 273 768.5 301.5Q727 330 678.5 359.5Q630 389 580.0 417.5Q530 446 484 470Z" transform="translate(2000 0)"/><path d="M44 431H960V349H44Z" transform="translate(3000 0)"/><path d="M454 840 534 825Q515 740 489.0 659.0Q463 578 431.0 507.5Q399 437 361 384Q354 390 340.0 398.5Q326 407 312.5 414.5Q299 422 289 426Q328 476 359.0 542.0Q390 608 414.5 684.0Q439 760 454 840ZM444 670H873V596H411ZM851 670H862L877 674L932 644Q919 595 901.0 545.0Q883 495 863.5 450.5Q844 406 827 371Q819 376 807.0 381.5Q795 387 784.0 393.0Q773 399 763 403Q779 434 796.0 477.0Q813 520 828.0 566.0Q843 612 851 651ZM57 717 102 771Q136 753 173.5 730.0Q211 707 244.0 683.5Q277 660 298 639L250 578Q230 599 197.5 624.0Q165 649 128.5 674.0Q92 699 57 717ZM42 73Q71 110 107.0 160.5Q143 211 180.5 267.5Q218 324 250 379L308 329Q278 278 244.5 224.0Q211 170 176.5 118.0Q142 66 111 21ZM639 448Q660 339 700.5 248.0Q741 157 805.0 91.5Q869 26 961 -7Q953 -14 943.0 -26.0Q933 -38 924.5 -50.5Q916 -63 911 -73Q814 -32 748.0 40.5Q682 113 640.5 213.5Q599 314 574 437ZM569 547H649V484Q649 435 643.0 378.0Q637 321 618.0 260.5Q599 200 560.5 139.5Q522 79 458.0 22.0Q394 -35 297 -84Q292 -75 281.5 -64.0Q271 -53 260.5 -42.5Q250 -32 240 -26Q332 19 392.5 71.0Q453 123 488.5 177.5Q524 232 541.5 286.5Q559 341 564.0 391.5Q569 442 569 485Z" transform="translate(4000 0)"/><path d="M65 182Q63 190 58.5 203.0Q54 216 49.0 230.5Q44 245 40 255Q57 258 76.0 275.0Q95 292 119 320Q133 333 158.0 364.0Q183 395 215.0 437.5Q247 480 279.5 529.5Q312 579 340 631L405 589Q342 487 267.5 391.0Q193 295 118 223V221Q118 221 110.0 217.5Q102 214 91.0 208.0Q80 202 72.5 195.0Q65 188 65 182ZM65 182 61 245 99 272 379 322Q377 307 377.0 287.5Q377 268 378 256Q282 237 223.5 224.5Q165 212 133.5 204.5Q102 197 87.5 192.0Q73 187 65 182ZM58 423Q56 431 51.5 444.0Q47 457 42.5 471.5Q38 486 33 495Q47 498 61.5 514.5Q76 531 92 557Q100 569 117.5 597.5Q135 626 155.5 665.5Q176 705 197.0 750.0Q218 795 234 840L305 807Q278 746 245.0 684.0Q212 622 176.0 565.5Q140 509 104 464V462Q104 462 97.0 458.0Q90 454 80.5 448.0Q71 442 64.5 435.5Q58 429 58 423ZM58 423 56 480 94 504 294 524Q290 510 288.5 492.0Q287 474 287 462Q218 453 176.0 447.0Q134 441 110.5 436.5Q87 432 75.5 429.0Q64 426 58 423ZM40 57Q82 66 136.5 78.5Q191 91 252.0 105.5Q313 120 375 135L383 69Q297 46 210.0 23.5Q123 1 54 -18ZM424 787H831V718H424ZM810 787H825L839 790L893 762Q858 691 804.5 630.5Q751 570 685.0 520.0Q619 470 547.0 431.5Q475 393 403 367Q398 376 390.0 387.5Q382 399 373.5 410.5Q365 422 357 429Q425 452 493.0 486.5Q561 521 622.0 565.5Q683 610 732.0 662.5Q781 715 810 773ZM371 18H961V-52H371ZM630 287H704V-9H630ZM431 332H914V263H431ZM632 518 672 572Q721 553 776.5 527.5Q832 502 882.5 476.5Q933 451 966 430L923 368Q891 390 841.5 417.0Q792 444 737.0 471.0Q682 498 632 518Z" transform="translate(5000 0)"/><path d="M311 410V321H698V410ZM240 464H772V267H240ZM169 203H848V-81H774V137H241V-83H169ZM207 19H808V-44H207ZM90 589H918V395H846V529H160V395H90ZM62 756H941V688H62ZM283 840H356V618H283ZM639 840H714V618H639Z" transform="translate(6000 0)"/></g><path d="M790 254L790 283" fill="none" stroke="#e57539" stroke-width="1"/><path d="M790 283L105 283" fill="none" stroke="#e57539" stroke-width="1"/><path d="M105 283L105 254" fill="none" stroke="#e57539" stroke-width="1"/><g fill="#e57539" transform="translate(338 306) scale(0.013 -0.013)"><path d="M217 535H792V462H217ZM169 754H246V488Q246 425 241.5 351.5Q237 278 224.0 200.5Q211 123 186.0 50.0Q161 -23 120 -83Q114 -76 101.5 -67.0Q89 -58 77.0 -50.5Q65 -43 55 -39Q95 19 117.5 86.0Q140 153 151.5 223.5Q163 294 166.0 361.5Q169 429 169 488ZM772 535H786L801 539L852 517Q819 392 760.5 295.5Q702 199 623.5 127.0Q545 55 452.0 5.5Q359 -44 257 -75Q252 -65 245.0 -52.5Q238 -40 230.0 -27.5Q222 -15 214 -7Q309 18 397.0 62.5Q485 107 559.5 173.0Q634 239 688.5 325.5Q743 412 772 521ZM377 496Q440 301 578.5 173.0Q717 45 937 -5Q929 -12 920.0 -23.5Q911 -35 903.0 -47.5Q895 -60 890 -71Q738 -32 625.5 42.0Q513 116 435.0 224.5Q357 333 308 477ZM804 831 866 771Q800 752 719.0 738.5Q638 725 548.5 714.5Q459 704 367.5 697.5Q276 691 189 688Q189 698 185.5 709.5Q182 721 178.0 733.5Q174 746 169 754Q254 759 343.0 765.5Q432 772 517.5 781.5Q603 791 676.5 803.5Q750 816 804 831Z" transform="translate(0 0)"/><path d="M140 685H333V619H140ZM151 839 219 826Q206 746 186.5 669.0Q167 592 142.0 525.0Q117 458 85 406Q80 412 69.5 420.5Q59 429 48.0 437.5Q37 446 29 450Q60 498 83.0 560.5Q106 623 123.0 694.0Q140 765 151 839ZM317 685H329L341 688L389 673Q371 617 349.0 559.5Q327 502 304 463L247 483Q266 519 285.5 572.0Q305 625 317 672ZM151 -73 139 -5 160 27 340 160Q343 146 350.0 128.5Q357 111 362 100Q297 50 257.5 19.0Q218 -12 196.5 -29.5Q175 -47 165.5 -56.5Q156 -66 151 -73ZM151 -73Q147 -65 139.5 -55.5Q132 -46 124.0 -37.0Q116 -28 109 -23Q119 -15 132.5 -1.0Q146 13 156.0 33.0Q166 53 166 78V480H234V25Q234 25 225.5 18.0Q217 11 204.5 -0.5Q192 -12 180.0 -26.0Q168 -40 159.5 -52.0Q151 -64 151 -73ZM371 516H961V457H371ZM619 839H688V493H619ZM485 720V634H827V720ZM422 773H893V581H422ZM417 401H882V89H810V340H487V89H417ZM671 40 705 89Q746 74 789.5 54.0Q833 34 871.5 12.5Q910 -9 935 -28L898 -82Q874 -63 836.0 -40.5Q798 -18 755.0 3.5Q712 25 671 40ZM613 289H684V190Q684 151 671.5 112.0Q659 73 627.0 37.0Q595 1 537.5 -29.5Q480 -60 391 -83Q388 -75 381.0 -63.5Q374 -52 365.5 -41.0Q357 -30 351 -24Q434 -4 485.5 21.0Q537 46 564.5 74.0Q592 102 602.5 132.0Q613 162 613 193Z" transform="translate(1000 0)"/><path d="M339 659H924V586H339ZM481 819H555V468Q555 420 549.5 366.5Q544 313 528.5 260.0Q513 207 482.5 159.5Q452 112 402 74Q398 82 388.0 92.5Q378 103 367.0 113.0Q356 123 348 128Q408 174 436.0 231.0Q464 288 472.5 349.5Q481 411 481 469ZM333 407H944V335H333ZM262 478V91H188V408H50V478ZM224 128Q249 128 271.5 109.5Q294 91 335 64Q384 33 449.0 24.5Q514 16 598 16Q643 16 691.5 17.5Q740 19 788.5 21.5Q837 24 882.0 27.5Q927 31 964 35Q959 25 954.5 11.0Q950 -3 946.5 -17.5Q943 -32 942 -43Q915 -44 872.0 -46.0Q829 -48 778.5 -49.5Q728 -51 680.0 -52.0Q632 -53 596 -53Q503 -53 437.0 -42.0Q371 -31 319 2Q288 22 264.0 41.5Q240 61 223 61Q206 61 184.5 43.5Q163 26 138.5 -3.0Q114 -32 88 -66L38 2Q89 57 137.5 92.5Q186 128 224 128ZM81 778 135 819Q163 795 192.5 765.5Q222 736 248.5 707.5Q275 679 292 657L234 609Q219 633 193.0 662.5Q167 692 138.0 722.5Q109 753 81 778ZM720 819H795V80H720Z" transform="translate(2000 0)"/><path d="M295 755 341 819Q410 770 459.5 713.0Q509 656 546.5 594.5Q584 533 615.5 469.5Q647 406 679.5 343.0Q712 280 750.5 221.0Q789 162 840.5 109.5Q892 57 964 15Q958 4 950.0 -11.5Q942 -27 935.5 -42.5Q929 -58 927 -70Q853 -29 799.0 25.0Q745 79 704.0 141.5Q663 204 628.5 270.5Q594 337 561.5 404.0Q529 471 492.0 534.5Q455 598 407.5 654.5Q360 711 295 755ZM459 607 543 591Q507 434 449.5 308.5Q392 183 308.0 88.0Q224 -7 110 -73Q103 -65 90.5 -54.0Q78 -43 64.5 -31.5Q51 -20 41 -13Q213 76 312.5 231.5Q412 387 459 607Z" transform="translate(3000 0)"/><path d="M55 766H946V691H55ZM441 707H520V-79H441ZM484 470 534 527Q579 506 629.0 479.0Q679 452 728.0 423.5Q777 395 819.5 368.0Q862 341 892 318L839 250Q810 273 768.5 301.5Q727 330 678.5 359.5Q630 389 580.0 417.5Q530 446 484 470Z" transform="translate(4000 0)"/><path d="M44 431H960V349H44Z" transform="translate(5000 0)"/><path d="M702 803Q731 742 773.5 681.5Q816 621 865.0 569.0Q914 517 961 483Q952 477 941.5 466.5Q931 456 922.0 445.0Q913 434 906 425Q858 464 808.0 521.5Q758 579 714.0 646.5Q670 714 639 780ZM644 842 723 828Q695 760 654.0 687.5Q613 615 556.5 545.5Q500 476 426 417Q420 426 411.0 436.5Q402 447 392.0 456.5Q382 466 374 472Q443 524 495.5 587.5Q548 651 585.5 717.0Q623 783 644 842ZM511 472H586V58Q586 31 596.0 23.0Q606 15 642 15Q649 15 671.0 15.0Q693 15 719.0 15.0Q745 15 768.0 15.0Q791 15 802 15Q823 15 833.5 25.0Q844 35 848.5 65.0Q853 95 855 153Q868 144 888.0 135.5Q908 127 924 123Q920 54 908.5 15.5Q897 -23 873.5 -38.0Q850 -53 807 -53Q801 -53 783.5 -53.0Q766 -53 743.5 -53.0Q721 -53 698.0 -53.0Q675 -53 658.0 -53.0Q641 -53 635 -53Q586 -53 559.0 -43.5Q532 -34 521.5 -9.5Q511 15 511 58ZM817 427 869 364Q825 333 771.5 300.5Q718 268 664.0 238.5Q610 209 564 187L523 242Q568 264 621.5 295.5Q675 327 727.0 361.5Q779 396 817 427ZM47 722H401V650H47ZM232 569H299V-75H232ZM40 167Q88 175 149.0 185.0Q210 195 278.5 207.0Q347 219 415 232L420 166Q324 147 228.0 127.5Q132 108 56 94ZM79 332Q77 339 73.5 350.5Q70 362 65.5 374.5Q61 387 57 395Q69 398 80.0 420.5Q91 443 103 477Q109 493 121.0 530.0Q133 567 146.5 618.0Q160 669 172.5 726.0Q185 783 192 840L262 826Q248 746 226.5 664.5Q205 583 179.0 508.0Q153 433 127 372V371Q127 371 120.0 367.0Q113 363 103.0 356.5Q93 350 86.0 343.5Q79 337 79 332ZM79 332V394L120 414H399V346H151Q126 346 105.5 342.0Q85 338 79 332Z" transform="translate(6000 0)"/></g></svg>